<svg width="40" height="40" viewBox="0 0 40 40" fill="none" xmlns="http://www.w3.org/2000/svg">
<g clip-path="url(#clip0_1291_6971)">
<path d="M23.875 9.17764L29.5711 5.107L28.2346 11.9794L28.0276 13.0441L29.1109 12.9906L36.1035 12.6458L31.2637 17.7046L30.5139 18.4883L31.4541 19.0291L37.5231 22.5194L30.7166 24.1586L29.6621 24.4125L30.1607 25.3757L33.3793 31.5932L26.767 29.2923L25.7427 28.9358L25.6414 30.0157L24.9876 36.9862L20.669 31.4757L20 30.622L19.331 31.4757L15.0124 36.9862L14.3586 30.0157L14.2573 28.9358L13.233 29.2923L6.62071 31.5932L9.83927 25.3757L10.3379 24.4125L9.28342 24.1586L2.47685 22.5194L8.54591 19.0291L9.48611 18.4883L8.73633 17.7046L3.89647 12.6458L10.8891 12.9906L11.9724 13.0441L11.7654 11.9794L10.4289 5.107L16.125 9.17764L17.0074 9.80826L17.4089 8.80067L20 2.29666L22.5911 8.80067L22.9926 9.80826L23.875 9.17764Z" fill="#FFE600" stroke="black" stroke-width="1.7"/>
<path d="M22 15H18L19.2188 22.7497H20.7657L22 15ZM18.8907 24.9316C18.8829 25.5185 19.3907 25.9925 20.0001 26C20.6017 25.9925 21.1017 25.5185 21.1095 24.9316C21.1017 24.3447 20.6017 23.8632 20.0001 23.8632C19.3907 23.8632 18.8829 24.3447 18.8907 24.9316Z" fill="black"/>
</g>
<defs>
<clipPath id="clip0_1291_6971">
<rect width="40" height="40" fill="white"/>
</clipPath>
</defs>
</svg>
