<svg width="40" height="40" viewBox="0 0 40 40" fill="none" xmlns="http://www.w3.org/2000/svg">
<path d="M25.6625 15.6625L21.325 20L25.6625 24.3375C25.7546 24.4233 25.8285 24.5268 25.8797 24.6418C25.931 24.7568 25.9585 24.881 25.9607 25.0068C25.963 25.1327 25.9398 25.2578 25.8927 25.3745C25.8455 25.4912 25.7753 25.5973 25.6863 25.6863C25.5973 25.7753 25.4912 25.8455 25.3745 25.8927C25.2578 25.9398 25.1327 25.963 25.0069 25.9607C24.881 25.9585 24.7568 25.931 24.6418 25.8797C24.5268 25.8285 24.4233 25.7546 24.3375 25.6625L20 21.325L15.6625 25.6625C15.4848 25.8281 15.2497 25.9183 15.0069 25.914C14.764 25.9097 14.5322 25.8113 14.3605 25.6395C14.1887 25.4678 14.0903 25.236 14.086 24.9932C14.0818 24.7503 14.1719 24.5152 14.3375 24.3375L18.675 20L14.3375 15.6625C14.1719 15.4848 14.0818 15.2497 14.086 15.0068C14.0903 14.764 14.1887 14.5322 14.3605 14.3605C14.5322 14.1887 14.764 14.0903 15.0069 14.086C15.2497 14.0817 15.4848 14.1719 15.6625 14.3375L20 18.675L24.3375 14.3375C24.5152 14.1719 24.7503 14.0817 24.9932 14.086C25.236 14.0903 25.4678 14.1887 25.6395 14.3605C25.8113 14.5322 25.9097 14.764 25.914 15.0068C25.9183 15.2497 25.8281 15.4848 25.6625 15.6625ZM35.9375 20C35.9375 23.1521 35.0028 26.2335 33.2516 28.8544C31.5003 31.4753 29.0112 33.5181 26.099 34.7243C23.1868 35.9306 19.9823 36.2462 16.8908 35.6313C13.7992 35.0163 10.9594 33.4984 8.73049 31.2695C6.50159 29.0406 4.98369 26.2008 4.36874 23.1093C3.75379 20.0177 4.06941 16.8132 5.27568 13.901C6.48195 10.9888 8.5247 8.49969 11.1456 6.74845C13.7665 4.99722 16.8479 4.0625 20 4.0625C24.2254 4.06746 28.2763 5.74818 31.264 8.73597C34.2518 11.7238 35.9325 15.7746 35.9375 20ZM34.0625 20C34.0625 17.2187 33.2378 14.4999 31.6925 12.1873C30.1473 9.87473 27.9511 8.0723 25.3815 7.00794C22.8119 5.94359 19.9844 5.6651 17.2565 6.20771C14.5287 6.75031 12.023 8.08963 10.0563 10.0563C8.08964 12.023 6.75032 14.5287 6.20771 17.2565C5.66511 19.9844 5.94359 22.8119 7.00795 25.3815C8.07231 27.9511 9.87473 30.1473 12.1873 31.6925C14.4999 33.2377 17.2187 34.0625 20 34.0625C23.7283 34.0584 27.3028 32.5755 29.9391 29.9391C32.5755 27.3028 34.0584 23.7283 34.0625 20Z" fill="black"/>
<circle cx="20.0001" cy="19.9996" r="15.6364" fill="#609FFF"/>
<path d="M35.9375 20C35.9375 23.1521 35.0028 26.2335 33.2516 28.8544C31.5003 31.4753 29.0112 33.5181 26.099 34.7243C23.1868 35.9306 19.9823 36.2462 16.8908 35.6313C13.7992 35.0163 10.9594 33.4984 8.73049 31.2695C6.50159 29.0406 4.98369 26.2008 4.36874 23.1093C3.75379 20.0177 4.06941 16.8132 5.27568 13.901C6.48195 10.9888 8.5247 8.49969 11.1456 6.74845C13.7665 4.99722 16.8479 4.0625 20 4.0625C24.2254 4.06746 28.2763 5.74818 31.264 8.73597C34.2518 11.7238 35.9325 15.7746 35.9375 20ZM34.0625 20C34.0625 17.2187 33.2378 14.4999 31.6925 12.1873C30.1473 9.87473 27.9511 8.0723 25.3815 7.00794C22.8119 5.94359 19.9844 5.6651 17.2565 6.20771C14.5287 6.75031 12.023 8.08963 10.0563 10.0563C8.08964 12.023 6.75032 14.5287 6.20771 17.2565C5.66511 19.9844 5.94359 22.8119 7.00795 25.3815C8.07231 27.9511 9.87473 30.1473 12.1873 31.6925C14.4999 33.2377 17.2187 34.0625 20 34.0625C23.7283 34.0584 27.3028 32.5755 29.9391 29.9391C32.5755 27.3028 34.0584 23.7283 34.0625 20Z" fill="black"/>
<path d="M26.6797 16.75H24.5078V13.3281H23.0234V27.3281H24.5078V22.1406H26.6797V20.9219H24.5078V18.0156H26.6797V16.75ZM14.1328 23.8125H20.6797V14.7188H14.1328V23.8125ZM15.5859 22.6094V15.8906H19.2109V22.6094H15.5859Z" fill="black"/>
</svg>
