<svg width="40" height="40" viewBox="0 0 40 40" fill="none" xmlns="http://www.w3.org/2000/svg">
<circle cx="20.0001" cy="19.9996" r="15.6364" fill="white"/>
<mask id="path-2-inside-1_1291_6956" fill="white">
<path fill-rule="evenodd" clip-rule="evenodd" d="M33.9936 28.1494C33.9979 28.2657 34 28.3826 34 28.5C34 33.7467 29.7467 38 24.5 38C22.0066 38 19.7376 37.0394 18.0428 35.4682C16.7821 36.4293 15.2077 37 13.5 37C9.35786 37 6 33.6421 6 29.5C6 28.7865 6.09964 28.0962 6.28576 27.4424C3.70418 25.7442 2 22.8211 2 19.5C2 15.4867 4.48863 12.0546 8.00689 10.6628C8.20393 5.84847 12.6026 2 18 2C21.6324 2 24.8125 3.74303 26.5639 6.35045C27.1661 6.12392 27.8186 6 28.5 6C31.5376 6 34 8.46243 34 11.5C34 11.7303 33.9858 11.9572 33.9584 12.1801C38.4681 14.9996 40.1676 20.5474 37.7419 24.7488C36.8555 26.2841 35.538 27.4322 33.9936 28.1494Z"/>
</mask>
<path fill-rule="evenodd" clip-rule="evenodd" d="M33.9936 28.1494C33.9979 28.2657 34 28.3826 34 28.5C34 33.7467 29.7467 38 24.5 38C22.0066 38 19.7376 37.0394 18.0428 35.4682C16.7821 36.4293 15.2077 37 13.5 37C9.35786 37 6 33.6421 6 29.5C6 28.7865 6.09964 28.0962 6.28576 27.4424C3.70418 25.7442 2 22.8211 2 19.5C2 15.4867 4.48863 12.0546 8.00689 10.6628C8.20393 5.84847 12.6026 2 18 2C21.6324 2 24.8125 3.74303 26.5639 6.35045C27.1661 6.12392 27.8186 6 28.5 6C31.5376 6 34 8.46243 34 11.5C34 11.7303 33.9858 11.9572 33.9584 12.1801C38.4681 14.9996 40.1676 20.5474 37.7419 24.7488C36.8555 26.2841 35.538 27.4322 33.9936 28.1494Z" fill="#FFB26B"/>
<path d="M33.9936 28.1494L33.2355 26.5168C32.5787 26.8218 32.1686 27.4908 32.1948 28.2146L33.9936 28.1494ZM18.0428 35.4682L19.2666 34.1482C18.6247 33.553 17.6477 33.506 16.9515 34.0367L18.0428 35.4682ZM6.28576 27.4424L8.01698 27.9352C8.23223 27.1791 7.93183 26.3707 7.27501 25.9386L6.28576 27.4424ZM8.00689 10.6628L8.66904 12.3366C9.33087 12.0748 9.77628 11.4475 9.80538 10.7364L8.00689 10.6628ZM26.5639 6.35045L25.0697 7.35413C25.5352 8.04717 26.4162 8.32914 27.1976 8.0352L26.5639 6.35045ZM33.9584 12.1801L32.1719 11.9598C32.0863 12.6543 32.4108 13.3354 33.0042 13.7064L33.9584 12.1801ZM37.7419 24.7488L36.183 23.8488L36.183 23.8488L37.7419 24.7488ZM32.1948 28.2146C32.1983 28.3093 32.2 28.4044 32.2 28.5H35.8C35.8 28.3608 35.7975 28.2222 35.7925 28.0841L32.1948 28.2146ZM32.2 28.5C32.2 32.7526 28.7526 36.2 24.5 36.2V39.8C30.7408 39.8 35.8 34.7408 35.8 28.5H32.2ZM24.5 36.2C22.4781 36.2 20.6417 35.4231 19.2666 34.1482L16.819 36.7882C18.8335 38.6558 21.5351 39.8 24.5 39.8V36.2ZM16.9515 34.0367C15.9934 34.7671 14.7998 35.2 13.5 35.2V38.8C15.6155 38.8 17.5707 38.0915 19.1341 36.8996L16.9515 34.0367ZM13.5 35.2C10.352 35.2 7.8 32.648 7.8 29.5H4.2C4.2 34.6362 8.36375 38.8 13.5 38.8V35.2ZM7.8 29.5C7.8 28.9548 7.87604 28.4303 8.01698 27.9352L4.55454 26.9496C4.32324 27.7621 4.2 28.6182 4.2 29.5H7.8ZM7.27501 25.9386C5.17799 24.5591 3.8 22.19 3.8 19.5H0.2C0.2 23.4521 2.23037 26.9292 5.29651 28.9462L7.27501 25.9386ZM3.8 19.5C3.8 16.2499 5.81422 13.4659 8.66904 12.3366L7.34474 8.989C3.16303 10.6433 0.2 14.7234 0.2 19.5H3.8ZM9.80538 10.7364C9.95641 7.04645 13.3998 3.8 18 3.8V0.2C11.8054 0.2 6.45145 4.65048 6.2084 10.5892L9.80538 10.7364ZM18 3.8C21.0631 3.8 23.6692 5.2691 25.0697 7.35413L28.0581 5.34677C25.9558 2.21696 22.2017 0.2 18 0.2V3.8ZM27.1976 8.0352C27.6004 7.88371 28.0383 7.8 28.5 7.8V4.2C27.5989 4.2 26.7319 4.36412 25.9302 4.6657L27.1976 8.0352ZM28.5 7.8C30.5435 7.8 32.2 9.45655 32.2 11.5H35.8C35.8 7.46832 32.5317 4.2 28.5 4.2V7.8ZM32.2 11.5C32.2 11.6565 32.1904 11.8099 32.1719 11.9598L35.7448 12.4004C35.7813 12.1046 35.8 11.8041 35.8 11.5H32.2ZM33.0042 13.7064C36.8359 16.1019 38.0433 20.6267 36.183 23.8488L39.3007 25.6488C42.2918 20.4681 40.1004 13.8972 34.9126 10.6538L33.0042 13.7064ZM36.183 23.8488C35.4933 25.0434 34.4655 25.9456 33.2355 26.5168L34.7518 29.7819C36.6105 28.9188 38.2176 27.5248 39.3007 25.6488L36.183 23.8488Z" fill="black" mask="url(#path-2-inside-1_1291_6956)"/>
<path d="M14.5617 22C15.4085 21.9894 16.1123 21.3239 16.1233 20.5C16.1123 19.6761 15.4085 19 14.5617 19C13.7039 19 12.9891 19.6761 13.0001 20.5C12.9891 21.3239 13.7039 21.9894 14.5617 22Z" fill="black"/>
<path d="M20.5001 22C21.3468 21.9894 22.0506 21.3239 22.0616 20.5C22.0506 19.6761 21.3468 19 20.5001 19C19.6423 19 18.9275 19.6761 18.9385 20.5C18.9275 21.3239 19.6423 21.9894 20.5001 22Z" fill="black"/>
<path d="M26.4384 22C27.2852 21.9894 27.989 21.3239 28 20.5C27.989 19.6761 27.2852 19 26.4384 19C25.5807 19 24.8659 19.6761 24.8769 20.5C24.8659 21.3239 25.5807 21.9894 26.4384 22Z" fill="black"/>
</svg>
