<svg width="50" height="50" viewBox="0 0 50 50" fill="none" xmlns="http://www.w3.org/2000/svg">
<circle cx="25" cy="24.9986" r="19.5455" fill="#FF6767" fill-opacity="0.67"/>
<path d="M32.0781 19.5781L26.6563 25L32.0781 30.4219C32.1933 30.5292 32.2856 30.6585 32.3497 30.8023C32.4137 30.946 32.4482 31.1012 32.4509 31.2586C32.4537 31.4159 32.4248 31.5722 32.3658 31.7181C32.3069 31.864 32.2192 31.9966 32.1079 32.1079C31.9966 32.2191 31.864 32.3069 31.7181 32.3658C31.5722 32.4248 31.4159 32.4537 31.2586 32.4509C31.1012 32.4481 30.946 32.4137 30.8023 32.3497C30.6585 32.2856 30.5292 32.1933 30.4219 32.0781L25 26.6562L19.5781 32.0781C19.356 32.2851 19.0622 32.3978 18.7586 32.3925C18.455 32.3871 18.1653 32.2641 17.9506 32.0494C17.7359 31.8347 17.6129 31.545 17.6075 31.2414C17.6022 30.9378 17.7149 30.644 17.9219 30.4219L23.3438 25L17.9219 19.5781C17.7149 19.356 17.6022 19.0622 17.6075 18.7586C17.6129 18.455 17.7359 18.1653 17.9506 17.9506C18.1653 17.7359 18.455 17.6129 18.7586 17.6075C19.0622 17.6022 19.356 17.7149 19.5781 17.9219L25 23.3438L30.4219 17.9219C30.644 17.7149 30.9379 17.6022 31.2414 17.6075C31.545 17.6129 31.8347 17.7359 32.0494 17.9506C32.2641 18.1653 32.3871 18.455 32.3925 18.7586C32.3978 19.0622 32.2851 19.356 32.0781 19.5781ZM44.9219 25C44.9219 28.9402 43.7535 32.7919 41.5644 36.068C39.3754 39.3441 36.264 41.8976 32.6238 43.4054C28.9835 44.9133 24.9779 45.3078 21.1134 44.5391C17.249 43.7704 13.6992 41.873 10.9131 39.0869C8.12699 36.3008 6.22962 32.751 5.46093 28.8866C4.69224 25.0221 5.08676 21.0165 6.5946 17.3762C8.10244 13.736 10.6559 10.6246 13.932 8.43557C17.2081 6.24652 21.0598 5.07813 25 5.07812C30.2817 5.08433 35.3453 7.18523 39.08 10.92C42.8148 14.6547 44.9157 19.7183 44.9219 25ZM42.5781 25C42.5781 21.5234 41.5472 18.1248 39.6157 15.2341C37.6842 12.3434 34.9388 10.0904 31.7269 8.75993C28.5149 7.42948 24.9805 7.08138 21.5707 7.75963C18.1609 8.43789 15.0287 10.112 12.5704 12.5704C10.1121 15.0287 8.4379 18.1609 7.75964 21.5707C7.08139 24.9805 7.42949 28.5149 8.75994 31.7269C10.0904 34.9388 12.3434 37.6842 15.2341 39.6157C18.1248 41.5472 21.5234 42.5781 25 42.5781C29.6604 42.573 34.1285 40.7193 37.4239 37.4239C40.7193 34.1285 42.573 29.6604 42.5781 25Z" fill="black"/>
</svg>
